<svg version="1.1" xmlns="http://www.w3.org/2000/svg" xmlns:xlink="http://www.w3.org/1999/xlink" width="240" height="360" viewBox="0 0 120 180"><defs/><g transform="scale(2,2) scale(2,2)"><path fill="none" stroke="none"/><path fill="rgb(0,50,0)" stroke="none" paint-order="stroke fill markers" d=" M 2.5 7 L 2.5 7 L 2.5 7 A 2.5 2.5 0 0 1 5 9.5 L 5 39.5 L 5 39.5 A 2.5 2.5 0 0 1 2.5 42 L 2.5 42 L 2.5 42 A 2.5 2.5 0 0 1 0 39.5 L 0 9.5 L 0 9.5 A 2.5 2.5 0 0 1 2.5 7 Z" fill-opacity="1"/><path fill="none" stroke="none"/><path fill="rgb(0,50,0)" stroke="none" paint-order="stroke fill markers" d=" M 27.5 7 L 27.5 7 L 27.5 7 A 2.5 2.5 0 0 1 30 9.5 L 30 39.5 L 30 39.5 A 2.5 2.5 0 0 1 27.5 42 L 27.5 42 L 27.5 42 A 2.5 2.5 0 0 1 25 39.5 L 25 9.5 L 25 9.5 A 2.5 2.5 0 0 1 27.5 7 Z" fill-opacity="1"/><path fill="none" stroke="none"/><path fill="rgb(0,120,0)" stroke="none" paint-order="stroke fill markers" d=" M 10 5 L 20 5 L 20 5 A 5 5 0 0 1 25 10 L 25 40 L 25 40 A 5 5 0 0 1 20 45 L 10 45 L 10 45 A 5 5 0 0 1 5 40 L 5 10 L 5 10 A 5 5 0 0 1 10 5 Z" fill-opacity="1"/><path fill="none" stroke="none"/><path fill="rgb(0,100,0)" stroke="none" paint-order="stroke fill markers" d=" M 12.5 17.5 L 17.5 17.5 L 17.5 17.5 A 5 5 0 0 1 22.5 22.5 L 22.5 27.5 L 22.5 27.5 A 5 5 0 0 1 17.5 32.5 L 12.5 32.5 L 12.5 32.5 A 5 5 0 0 1 7.5 27.5 L 7.5 22.5 L 7.5 22.5 A 5 5 0 0 1 12.5 17.5 Z" fill-opacity="1"/><path fill="none" stroke="none"/><path fill="rgb(0,100,0)" stroke="none" paint-order="stroke fill markers" d=" M 12.5 -2 L 17.5 -2 L 17.5 18 L 12.5 18 L 12.5 -2 Z" fill-opacity="1"/><path fill="none" stroke="none"/><path fill="rgb(0,50,0)" stroke="none" paint-order="stroke fill markers" d=" M 2.5 7 L 2.5 7 L 2.5 7 A 2.5 2.5 0 0 1 5 9.5 L 5 39.5 L 5 39.5 A 2.5 2.5 0 0 1 2.5 42 L 2.5 42 L 2.5 42 A 2.5 2.5 0 0 1 0 39.5 L 0 9.5 L 0 9.5 A 2.5 2.5 0 0 1 2.5 7 Z" fill-opacity="1"/><path fill="none" stroke="none"/><path fill="rgb(0,50,0)" stroke="none" paint-order="stroke fill markers" d=" M 27.5 7 L 27.5 7 L 27.5 7 A 2.5 2.5 0 0 1 30 9.5 L 30 39.5 L 30 39.5 A 2.5 2.5 0 0 1 27.5 42 L 27.5 42 L 27.5 42 A 2.5 2.5 0 0 1 25 39.5 L 25 9.5 L 25 9.5 A 2.5 2.5 0 0 1 27.5 7 Z" fill-opacity="1"/><path fill="none" stroke="none"/><path fill="rgb(0,120,0)" stroke="none" paint-order="stroke fill markers" d=" M 10 5 L 20 5 L 20 5 A 5 5 0 0 1 25 10 L 25 40 L 25 40 A 5 5 0 0 1 20 45 L 10 45 L 10 45 A 5 5 0 0 1 5 40 L 5 10 L 5 10 A 5 5 0 0 1 10 5 Z" fill-opacity="1"/><path fill="none" stroke="none"/><path fill="rgb(0,100,0)" stroke="none" paint-order="stroke fill markers" d=" M 12.5 17.5 L 17.5 17.5 L 17.5 17.5 A 5 5 0 0 1 22.5 22.5 L 22.5 27.5 L 22.5 27.5 A 5 5 0 0 1 17.5 32.5 L 12.5 32.5 L 12.5 32.5 A 5 5 0 0 1 7.5 27.5 L 7.5 22.5 L 7.5 22.5 A 5 5 0 0 1 12.5 17.5 Z" fill-opacity="1"/><path fill="none" stroke="none"/><path fill="rgb(0,100,0)" stroke="none" paint-order="stroke fill markers" d=" M 12.5 -2 L 17.5 -2 L 17.5 18 L 12.5 18 L 12.5 -2 Z" fill-opacity="1"/></g></svg>