<?xml version="1.0" standalone="no"?>
<!DOCTYPE svg PUBLIC "-//W3C//DTD SVG 20010904//EN"
 "http://www.w3.org/TR/2001/REC-SVG-20010904/DTD/svg10.dtd">
<svg version="1.0" xmlns="http://www.w3.org/2000/svg"
 width="260.000000pt" height="260.000000pt" viewBox="0 0 260.000000 260.000000"
 preserveAspectRatio="xMidYMid meet">
<metadata>
Created by potrace 1.14, written by Peter Selinger 2001-2017
</metadata>
<g transform="translate(0.000000,260.000000) scale(0.100000,-0.100000)"
fill="#000000" stroke="none">
<path d="M0 1300 l0 -1300 1300 0 1300 0 0 1300 0 1300 -1300 0 -1300 0 0
-1300z m922 572 c150 -55 254 -180 304 -362 26 -94 26 -378 0 -470 -44 -159
-135 -277 -258 -335 -100 -47 -166 -55 -490 -55 l-278 0 0 626 0 626 333 -4
c308 -4 336 -6 389 -26z m1197 18 c121 -20 207 -86 259 -199 35 -74 42 -210
17 -296 -31 -108 -112 -196 -214 -237 -49 -19 -80 -22 -258 -26 -151 -3 -205
-7 -213 -17 -8 -9 -10 -86 -8 -239 l3 -226 -127 0 -128 0 0 625 0 625 303 0
c166 0 331 -5 366 -10z"/>
<path d="M455 1669 c-3 -13 -4 -197 -3 -409 l3 -385 145 -3 c82 -2 167 2 196
8 141 30 204 178 191 450 -7 143 -27 207 -84 270 -61 68 -103 81 -290 87
l-152 6 -6 -24z m413 -377 l82 -55 -107 -72 -108 -72 -5 41 -5 41 -92 3 -93 3
0 54 0 55 95 0 95 0 0 46 0 46 28 -18 c15 -9 64 -42 110 -72z"/>
<path d="M1706 1674 c-8 -20 -8 -298 0 -318 5 -13 25 -16 118 -16 147 0 220
13 263 46 84 64 84 194 1 258 -45 34 -113 46 -258 46 -98 0 -119 -3 -124 -16z"/>
</g>
</svg>
